<svg width="25" height="25" viewBox="0 0 25 25" fill="none" xmlns="http://www.w3.org/2000/svg">
<path d="M18.75 13.2812V20.3125C18.75 20.7269 18.5854 21.1243 18.2924 21.4174C17.9993 21.7104 17.6019 21.875 17.1875 21.875H4.6875C4.2731 21.875 3.87567 21.7104 3.58265 21.4174C3.28962 21.1243 3.125 20.7269 3.125 20.3125V7.8125C3.125 7.3981 3.28962 7.00067 3.58265 6.70765C3.87567 6.41462 4.2731 6.25 4.6875 6.25H11.7188C11.926 6.25 12.1247 6.33231 12.2712 6.47882C12.4177 6.62534 12.5 6.82405 12.5 7.03125C12.5 7.23845 12.4177 7.43716 12.2712 7.58368C12.1247 7.73019 11.926 7.8125 11.7188 7.8125H4.6875V20.3125H17.1875V13.2812C17.1875 13.074 17.2698 12.8753 17.4163 12.7288C17.5628 12.5823 17.7615 12.5 17.9688 12.5C18.176 12.5 18.3747 12.5823 18.5212 12.7288C18.6677 12.8753 18.75 13.074 18.75 13.2812ZM21.875 3.90625C21.875 3.69905 21.7927 3.50034 21.6462 3.35382C21.4997 3.20731 21.301 3.125 21.0938 3.125H14.8438C14.6891 3.12488 14.538 3.17063 14.4094 3.25647C14.2808 3.34231 14.1806 3.46436 14.1214 3.6072C14.0622 3.75003 14.0467 3.9072 14.0769 4.05883C14.1071 4.21046 14.1816 4.34972 14.291 4.45898L16.8643 7.03125L12.7285 11.166C12.5819 11.3126 12.4996 11.5114 12.4996 11.7188C12.4996 11.9261 12.5819 12.1249 12.7285 12.2715C12.8751 12.4181 13.0739 12.5004 13.2812 12.5004C13.4886 12.5004 13.6874 12.4181 13.834 12.2715L17.9688 8.13574L20.541 10.709C20.6503 10.8184 20.7895 10.8929 20.9412 10.9231C21.0928 10.9533 21.25 10.9378 21.3928 10.8786C21.5356 10.8194 21.6577 10.7192 21.7435 10.5906C21.8294 10.462 21.8751 10.3109 21.875 10.1562V3.90625Z" fill="#2684FF"/>
</svg>
