<svg width="21" height="21" viewBox="0 0 21 21" fill="none" xmlns="http://www.w3.org/2000/svg">
<path d="M10.5 1.96875C8.81268 1.96875 7.16325 2.4691 5.7603 3.40652C4.35734 4.34395 3.26387 5.67635 2.61816 7.23523C1.97245 8.79411 1.8035 10.5095 2.13268 12.1644C2.46186 13.8193 3.27438 15.3394 4.4675 16.5325C5.66062 17.7256 7.18074 18.5381 8.83564 18.8673C10.4905 19.1965 12.2059 19.0276 13.7648 18.3818C15.3237 17.7361 16.6561 16.6427 17.5935 15.2397C18.5309 13.8368 19.0313 12.1873 19.0313 10.5C19.0289 8.2381 18.1293 6.06954 16.5299 4.47013C14.9305 2.87073 12.7619 1.97114 10.5 1.96875ZM13.5893 12.6607C13.6503 12.7217 13.6986 12.7941 13.7316 12.8737C13.7646 12.9534 13.7816 13.0388 13.7816 13.125C13.7816 13.2112 13.7646 13.2966 13.7316 13.3763C13.6986 13.4559 13.6503 13.5283 13.5893 13.5893C13.5283 13.6503 13.4559 13.6986 13.3763 13.7316C13.2966 13.7646 13.2112 13.7816 13.125 13.7816C13.0388 13.7816 12.9534 13.7646 12.8737 13.7316C12.7941 13.6986 12.7217 13.6503 12.6607 13.5893L10.5 11.4278L8.3393 13.5893C8.27833 13.6503 8.20594 13.6986 8.12628 13.7316C8.04662 13.7646 7.96123 13.7816 7.875 13.7816C7.78878 13.7816 7.70339 13.7646 7.62373 13.7316C7.54406 13.6986 7.47168 13.6503 7.41071 13.5893C7.34973 13.5283 7.30137 13.4559 7.26837 13.3763C7.23537 13.2966 7.21839 13.2112 7.21839 13.125C7.21839 13.0388 7.23537 12.9534 7.26837 12.8737C7.30137 12.7941 7.34973 12.7217 7.41071 12.6607L9.57223 10.5L7.41071 8.3393C7.28757 8.21616 7.21839 8.04915 7.21839 7.875C7.21839 7.70085 7.28757 7.53384 7.41071 7.4107C7.53385 7.28756 7.70086 7.21839 7.875 7.21839C8.04915 7.21839 8.21616 7.28756 8.3393 7.4107L10.5 9.57223L12.6607 7.4107C12.7217 7.34973 12.7941 7.30136 12.8737 7.26837C12.9534 7.23537 13.0388 7.21839 13.125 7.21839C13.2112 7.21839 13.2966 7.23537 13.3763 7.26837C13.4559 7.30136 13.5283 7.34973 13.5893 7.4107C13.6503 7.47168 13.6986 7.54406 13.7316 7.62372C13.7646 7.70339 13.7816 7.78877 13.7816 7.875C13.7816 7.96123 13.7646 8.04661 13.7316 8.12628C13.6986 8.20594 13.6503 8.27832 13.5893 8.3393L11.4278 10.5L13.5893 12.6607Z" fill="#E24329"/>
</svg>
