<svg width="25" height="25" viewBox="0 0 25 25" fill="none" xmlns="http://www.w3.org/2000/svg">
<path d="M20.3125 3.125H7.8125C7.3981 3.125 7.00067 3.28962 6.70765 3.58265C6.41462 3.87567 6.25 4.2731 6.25 4.6875V6.25H4.6875C4.2731 6.25 3.87567 6.41462 3.58265 6.70765C3.28962 7.00067 3.125 7.3981 3.125 7.8125V20.3125C3.125 20.7269 3.28962 21.1243 3.58265 21.4174C3.87567 21.7104 4.2731 21.875 4.6875 21.875H17.1875C17.6019 21.875 17.9993 21.7104 18.2924 21.4174C18.5854 21.1243 18.75 20.7269 18.75 20.3125V18.75H20.3125C20.7269 18.75 21.1243 18.5854 21.4174 18.2924C21.7104 17.9993 21.875 17.6019 21.875 17.1875V4.6875C21.875 4.2731 21.7104 3.87567 21.4174 3.58265C21.1243 3.28962 20.7269 3.125 20.3125 3.125ZM7.8125 4.6875H20.3125V11.4629L18.6816 9.83203C18.3886 9.53923 17.9914 9.37475 17.5771 9.37475C17.1629 9.37475 16.7657 9.53923 16.4727 9.83203L9.11816 17.1875H7.8125V4.6875ZM17.1875 20.3125H4.6875V7.8125H6.25V17.1875C6.25 17.6019 6.41462 17.9993 6.70765 18.2924C7.00067 18.5854 7.3981 18.75 7.8125 18.75H17.1875V20.3125ZM10.1562 8.59375C10.1562 8.28472 10.2479 7.98262 10.4196 7.72567C10.5913 7.46872 10.8353 7.26845 11.1208 7.15019C11.4063 7.03193 11.7205 7.00098 12.0236 7.06127C12.3267 7.12156 12.6051 7.27038 12.8236 7.4889C13.0421 7.70742 13.1909 7.98583 13.2512 8.28892C13.3115 8.59202 13.2806 8.90618 13.1623 9.19169C13.0441 9.4772 12.8438 9.72123 12.5868 9.89292C12.3299 10.0646 12.0278 10.1562 11.7188 10.1562C11.3043 10.1562 10.9069 9.99163 10.6139 9.6986C10.3209 9.40558 10.1562 9.00815 10.1562 8.59375Z" fill="#2684FF"/>
</svg>
