<svg width="50" height="50" viewBox="0 0 50 50" fill="none" xmlns="http://www.w3.org/2000/svg">
<path d="M37.4431 30.554L35.5692 29.3085L36.8148 27.4347L38.6886 28.6802C38.9371 28.8454 39.1098 29.1025 39.1687 29.395C39.2276 29.6875 39.1679 29.9914 39.0027 30.2399C38.8376 30.4884 38.5805 30.661 38.288 30.72C37.9955 30.7789 37.6916 30.7192 37.4431 30.554ZM16.2027 13.7341C15.9542 13.5689 15.6503 13.5092 15.3578 13.5681C15.0653 13.6271 14.8082 13.7998 14.6431 14.0482C14.4779 14.2967 14.4182 14.6006 14.4771 14.8931C14.536 15.1856 14.7087 15.4427 14.9572 15.6079L16.831 16.8534L18.0765 14.9796L16.2027 13.7341ZM32.4555 33.9931C32.2453 34.3093 32.0211 34.6111 31.7859 34.8988L33.7065 36.1755C33.955 36.3407 34.1277 36.5978 34.1866 36.8903C34.2455 37.1827 34.1859 37.4867 34.0207 37.7352C33.8555 37.9836 33.5984 38.1563 33.3059 38.2152C33.0134 38.2742 32.7095 38.2145 32.461 38.0493L30.1562 36.5173C28.294 38.0223 26.0001 38.8938 23.6083 39.0052C21.2166 39.1165 18.8517 38.4619 16.8576 37.1364C14.8636 35.811 13.3444 33.884 12.5211 31.6356C11.6978 29.3872 11.6134 26.9348 12.28 24.6352L9.97518 23.1032C9.72669 22.938 9.554 22.6809 9.49508 22.3884C9.43616 22.0959 9.49585 21.792 9.66102 21.5435C9.82619 21.295 10.0833 21.1223 10.3758 21.0634C10.6683 21.0045 10.9722 21.0642 11.2207 21.2294L13.1414 22.506C13.3156 22.1778 13.5071 21.8542 13.7173 21.538L14.34 20.6011L12.4662 19.3555C12.2177 19.1904 12.045 18.9333 11.9861 18.6408C11.9272 18.3483 11.9869 18.0444 12.152 17.7959C12.3172 17.5474 12.5743 17.3747 12.8668 17.3158C13.1593 17.2569 13.4632 17.3166 13.7117 17.4817L15.5855 18.7272L16.831 16.8534L35.5692 29.3085L34.3237 31.1823L36.1976 32.4278C36.446 32.593 36.6187 32.8501 36.6777 33.1426C36.7366 33.4351 36.6769 33.739 36.5117 33.9875C36.3465 34.236 36.0894 34.4087 35.7969 34.4676C35.5045 34.5265 35.2005 34.4668 34.952 34.3017L33.0782 33.0562L32.4555 33.9931ZM25.2688 26.5144C25.434 26.266 25.4936 25.962 25.4347 25.6696C25.3758 25.3771 25.2031 25.1199 24.9546 24.9548C24.7061 24.7896 24.4022 24.7299 24.1097 24.7888C23.8172 24.8478 23.5601 25.0205 23.395 25.2689L18.4129 32.7642C18.2478 33.0127 18.1881 33.3166 18.247 33.6091C18.3059 33.9016 18.4786 34.1587 18.7271 34.3239C18.9756 34.4891 19.2795 34.5487 19.572 34.4898C19.8645 34.4309 20.1216 34.2582 20.2867 34.0097L25.2688 26.5144ZM24.2813 11.1929C21.8629 11.7493 19.6972 13.0919 18.1234 15.0107L36.7679 27.4036C37.9278 25.2097 38.3274 22.693 37.904 20.2478L41.7049 19.4832C41.8498 19.454 41.9876 19.3966 42.1103 19.3142C42.233 19.2317 42.3382 19.1259 42.4201 19.0028C42.5019 18.8797 42.5587 18.7417 42.5872 18.5967C42.6157 18.4516 42.6153 18.3024 42.5861 18.1575C42.5569 18.0126 42.4995 17.8748 42.4171 17.7521C42.3346 17.6294 42.2288 17.5241 42.1057 17.4423C41.9826 17.3605 41.8446 17.3037 41.6996 17.2752C41.5545 17.2467 41.4053 17.2471 41.2604 17.2763L37.3039 18.0742C36.4683 15.9104 34.9823 14.0588 33.0505 12.7748C31.1188 11.4908 28.8363 10.8374 26.5177 10.9048L25.7217 6.94789C25.6628 6.65523 25.49 6.39798 25.2414 6.23272C24.9927 6.06746 24.6886 6.00774 24.396 6.06669C24.1033 6.12564 23.8461 6.29843 23.6808 6.54705C23.5156 6.79567 23.4558 7.09976 23.5148 7.39242L24.2813 11.1929Z" fill="#D94B3B"/>
</svg>
