<svg width="25" height="25" viewBox="0 0 25 25" fill="none" xmlns="http://www.w3.org/2000/svg">
<path d="M20.3125 3.90625H4.6875C3.39308 3.90625 2.34375 4.95558 2.34375 6.25V17.1875C2.34375 18.4819 3.39308 19.5312 4.6875 19.5312H20.3125C21.6069 19.5312 22.6562 18.4819 22.6562 17.1875V6.25C22.6562 4.95558 21.6069 3.90625 20.3125 3.90625Z" fill="#2684FF"/>
<path d="M15.625 21.0938H9.375C9.1678 21.0938 8.96909 21.1761 8.82257 21.3226C8.67606 21.4691 8.59375 21.6678 8.59375 21.875C8.59375 22.0822 8.67606 22.2809 8.82257 22.4274C8.96909 22.5739 9.1678 22.6562 9.375 22.6562H15.625C15.8322 22.6562 16.0309 22.5739 16.1774 22.4274C16.3239 22.2809 16.4062 22.0822 16.4062 21.875C16.4062 21.6678 16.3239 21.4691 16.1774 21.3226C16.0309 21.1761 15.8322 21.0938 15.625 21.0938Z" fill="#343330"/>
</svg>
