<svg width="25" height="25" viewBox="0 0 25 25" fill="none" xmlns="http://www.w3.org/2000/svg">
<path d="M21.0938 3.90625H7.03125C6.61685 3.90625 6.21942 4.07087 5.9264 4.3639C5.63337 4.65692 5.46875 5.05435 5.46875 5.46875V7.03125H3.90625C3.49185 7.03125 3.09442 7.19587 2.8014 7.4889C2.50837 7.78192 2.34375 8.17935 2.34375 8.59375V19.5312C2.34375 19.9457 2.50837 20.3431 2.8014 20.6361C3.09442 20.9291 3.49185 21.0938 3.90625 21.0938H17.9688C18.3832 21.0938 18.7806 20.9291 19.0736 20.6361C19.3666 20.3431 19.5312 19.9457 19.5312 19.5312V17.9688H21.0938C21.5082 17.9688 21.9056 17.8041 22.1986 17.5111C22.4916 17.2181 22.6562 16.8207 22.6562 16.4062V5.46875C22.6562 5.05435 22.4916 4.65692 22.1986 4.3639C21.9056 4.07087 21.5082 3.90625 21.0938 3.90625ZM17.9688 8.59375V10.1562H3.90625V8.59375H17.9688ZM21.0938 16.4062H19.5312V8.59375C19.5312 8.17935 19.3666 7.78192 19.0736 7.4889C18.7806 7.19587 18.3832 7.03125 17.9688 7.03125H7.03125V5.46875H21.0938V16.4062Z" fill="#2684FF"/>
</svg>
