<svg width="18" height="17" viewBox="0 0 18 17" fill="none" xmlns="http://www.w3.org/2000/svg">
<path d="M8.99977 1.69104C7.67638 1.69104 6.38271 2.08347 5.28235 2.81871C4.182 3.55394 3.32437 4.59896 2.81793 5.82161C2.31149 7.04427 2.17899 8.38964 2.43717 9.6876C2.69535 10.9856 3.33262 12.1778 4.2684 13.1136C5.20417 14.0494 6.39643 14.6866 7.69439 14.9448C8.99235 15.203 10.3377 15.0705 11.5604 14.5641C12.783 14.0576 13.828 13.2 14.5633 12.0996C15.2985 10.9993 15.691 9.70561 15.691 8.38222C15.6891 6.60818 14.9835 4.90734 13.7291 3.65291C12.4746 2.39848 10.7738 1.69291 8.99977 1.69104ZM11.9375 7.20225L8.33452 10.8052C8.28671 10.8531 8.22995 10.891 8.16746 10.9169C8.10498 10.9428 8.038 10.9562 7.97036 10.9562C7.90272 10.9562 7.83574 10.9428 7.77326 10.9169C7.71078 10.891 7.65401 10.8531 7.60621 10.8052L6.06209 9.26108C5.96551 9.1645 5.91125 9.03351 5.91125 8.89692C5.91125 8.76034 5.96551 8.62935 6.06209 8.53277C6.15867 8.43619 6.28966 8.38193 6.42624 8.38193C6.56283 8.38193 6.69382 8.43619 6.7904 8.53277L7.97036 9.71337L11.2091 6.47394C11.257 6.42612 11.3137 6.38819 11.3762 6.36231C11.4387 6.33643 11.5057 6.32311 11.5733 6.32311C11.6409 6.32311 11.7079 6.33643 11.7704 6.36231C11.8329 6.38819 11.8896 6.42612 11.9375 6.47394C11.9853 6.52177 12.0232 6.57854 12.0491 6.64102C12.075 6.7035 12.0883 6.77047 12.0883 6.8381C12.0883 6.90573 12.075 6.9727 12.0491 7.03518C12.0232 7.09766 11.9853 7.15443 11.9375 7.20225Z" fill="#8BC470"/>
</svg>
