<svg width="21" height="21" viewBox="0 0 21 21" fill="none" xmlns="http://www.w3.org/2000/svg">
<path d="M19.4249 15.4293L12.2513 2.97123C12.072 2.66601 11.8161 2.41294 11.5089 2.2371C11.2017 2.06125 10.8539 1.96875 10.4999 1.96875C10.1459 1.96875 9.79811 2.06125 9.49091 2.2371C9.18371 2.41294 8.9278 2.66601 8.74854 2.97123L1.5749 15.4293C1.40242 15.7245 1.31152 16.0603 1.31152 16.4022C1.31152 16.7441 1.40242 17.0799 1.5749 17.3751C1.75187 17.6822 2.00735 17.9366 2.31512 18.1123C2.6229 18.2881 2.97188 18.3787 3.32627 18.3751H17.6735C18.0276 18.3784 18.3763 18.2876 18.6838 18.1119C18.9912 17.9362 19.2464 17.6819 19.4233 17.3751C19.596 17.08 19.6872 16.7443 19.6875 16.4024C19.6877 16.0605 19.5971 15.7247 19.4249 15.4293ZM9.84365 8.5313C9.84365 8.35725 9.91279 8.19034 10.0359 8.06726C10.1589 7.94419 10.3259 7.87505 10.4999 7.87505C10.674 7.87505 10.8409 7.94419 10.9639 8.06726C11.087 8.19034 11.1562 8.35725 11.1562 8.5313V11.8126C11.1562 11.9866 11.087 12.1535 10.9639 12.2766C10.8409 12.3997 10.674 12.4688 10.4999 12.4688C10.3259 12.4688 10.1589 12.3997 10.0359 12.2766C9.91279 12.1535 9.84365 11.9866 9.84365 11.8126V8.5313ZM10.4999 15.7501C10.3052 15.7501 10.1149 15.6923 9.95301 15.5842C9.79113 15.476 9.66496 15.3223 9.59046 15.1424C9.51595 14.9625 9.49646 14.7646 9.53444 14.5736C9.57242 14.3827 9.66618 14.2073 9.80384 14.0696C9.94151 13.932 10.1169 13.8382 10.3079 13.8002C10.4988 13.7622 10.6967 13.7817 10.8766 13.8562C11.0565 13.9307 11.2102 14.0569 11.3184 14.2188C11.4265 14.3807 11.4843 14.571 11.4843 14.7657C11.4843 15.0268 11.3806 15.2771 11.196 15.4617C11.0114 15.6463 10.761 15.7501 10.4999 15.7501Z" fill="#FFBF00"/>
</svg>
