<svg width="21" height="21" viewBox="0 0 21 21" fill="none" xmlns="http://www.w3.org/2000/svg">
<path d="M10.5 1.96875C8.81268 1.96875 7.16325 2.4691 5.7603 3.40652C4.35734 4.34395 3.26387 5.67635 2.61816 7.23523C1.97245 8.79411 1.8035 10.5095 2.13268 12.1644C2.46186 13.8193 3.27438 15.3394 4.4675 16.5325C5.66062 17.7256 7.18074 18.5381 8.83564 18.8673C10.4905 19.1965 12.2059 19.0276 13.7648 18.3818C15.3237 17.7361 16.6561 16.6427 17.5935 15.2397C18.5309 13.8368 19.0313 12.1873 19.0313 10.5C19.0289 8.2381 18.1293 6.06954 16.5299 4.47013C14.9305 2.87073 12.7619 1.97114 10.5 1.96875ZM9.84375 6.5625C9.84375 6.38845 9.91289 6.22153 10.036 6.09846C10.159 5.97539 10.326 5.90625 10.5 5.90625C10.6741 5.90625 10.841 5.97539 10.964 6.09846C11.0871 6.22153 11.1563 6.38845 11.1563 6.5625V11.1562C11.1563 11.3303 11.0871 11.4972 10.964 11.6203C10.841 11.7434 10.6741 11.8125 10.5 11.8125C10.326 11.8125 10.159 11.7434 10.036 11.6203C9.91289 11.4972 9.84375 11.3303 9.84375 11.1562V6.5625ZM10.5 15.0938C10.3053 15.0938 10.115 15.036 9.95311 14.9279C9.79123 14.8197 9.66506 14.6659 9.59056 14.4861C9.51605 14.3062 9.49656 14.1083 9.53454 13.9173C9.57253 13.7264 9.66628 13.551 9.80395 13.4133C9.94161 13.2757 10.117 13.1819 10.308 13.1439C10.4989 13.1059 10.6968 13.1254 10.8767 13.1999C11.0566 13.2744 11.2103 13.4006 11.3185 13.5625C11.4266 13.7244 11.4844 13.9147 11.4844 14.1094C11.4844 14.3704 11.3807 14.6208 11.1961 14.8054C11.0115 14.99 10.7611 15.0938 10.5 15.0938Z" fill="#E24329"/>
</svg>
